<svg width="17" height="16" viewBox="0 0 17 16" fill="none" xmlns="http://www.w3.org/2000/svg">
<path d="M0.166687 1.83333V5.83333C0.166687 6.58333 0.583354 7.16667 1.16669 7.16667H15.9167C16.4167 7.16667 16.9167 6.58333 16.9167 5.83333V1.83333C16.8334 1.08333 16.4167 0.5 15.8334 0.5H1.16669C0.583354 0.5 0.166687 1.08333 0.166687 1.83333ZM6.83335 4.66667V3H6.00002V4.66667H6.83335ZM2.66669 4.66667H4.33335V3H2.66669V4.66667ZM15.1667 5.5H1.83335V2.16667H15.1667V5.5ZM0.166687 10.1667V14.1667C0.166687 14.9167 0.583354 15.5 1.16669 15.5H15.9167C16.4167 15.5 16.9167 14.9167 16.9167 14.1667V10.1667C16.9167 9.41667 16.5 8.83333 15.9167 8.83333H1.16669C0.583354 8.83333 0.166687 9.41667 0.166687 10.1667ZM6.83335 13V11.3333H6.00002V13H6.83335ZM2.66669 13H4.33335V11.3333H2.66669V13ZM15.1667 13.8333H1.83335V10.5H15.1667V13.8333Z" fill="black"/>
</svg>
