<svg width="17" height="17" viewBox="0 0 17 17" fill="none" xmlns="http://www.w3.org/2000/svg">
<path d="M8.50002 0.666656C7.40567 0.666656 6.32204 0.882205 5.31099 1.30099C4.29994 1.71978 3.38129 2.33361 2.60746 3.10743C1.04466 4.67024 0.166687 6.78985 0.166687 8.99999C0.166687 12.6833 2.55835 15.8083 5.86669 16.9167C6.28335 16.9833 6.41669 16.725 6.41669 16.5V15.0917C4.10835 15.5917 3.61669 13.975 3.61669 13.975C3.23335 13.0083 2.69169 12.75 2.69169 12.75C1.93335 12.2333 2.75002 12.25 2.75002 12.25C3.58335 12.3083 4.02502 13.1083 4.02502 13.1083C4.75002 14.375 5.97502 14 6.45002 13.8C6.52502 13.2583 6.74169 12.8917 6.97502 12.6833C5.12502 12.475 3.18335 11.7583 3.18335 8.58332C3.18335 7.65832 3.50002 6.91666 4.04169 6.32499C3.95835 6.11666 3.66669 5.24999 4.12502 4.12499C4.12502 4.12499 4.82502 3.89999 6.41669 4.97499C7.07502 4.79166 7.79169 4.69999 8.50002 4.69999C9.20835 4.69999 9.92502 4.79166 10.5834 4.97499C12.175 3.89999 12.875 4.12499 12.875 4.12499C13.3334 5.24999 13.0417 6.11666 12.9584 6.32499C13.5 6.91666 13.8167 7.65832 13.8167 8.58332C13.8167 11.7667 11.8667 12.4667 10.0084 12.675C10.3084 12.9333 10.5834 13.4417 10.5834 14.2167V16.5C10.5834 16.725 10.7167 16.9917 11.1417 16.9167C14.45 15.8 16.8334 12.6833 16.8334 8.99999C16.8334 7.90564 16.6178 6.82201 16.199 5.81096C15.7802 4.79991 15.1664 3.88125 14.3926 3.10743C13.6188 2.33361 12.7001 1.71978 11.689 1.30099C10.678 0.882205 9.59437 0.666656 8.50002 0.666656Z" fill="black"/>
</svg>
