<svg width="17" height="16" viewBox="0 0 17 16" fill="none" xmlns="http://www.w3.org/2000/svg">
<path d="M9.15393 12.6508C9.24133 12.7379 9.31068 12.8414 9.358 12.9553C9.40531 13.0693 9.42967 13.1915 9.42967 13.3148C9.42967 13.4382 9.40531 13.5604 9.358 13.6744C9.31068 13.7883 9.24133 13.8918 9.15393 13.9789L8.68987 14.443C7.81051 15.3223 6.61784 15.8163 5.37424 15.8163C4.13064 15.8163 2.93798 15.3223 2.05862 14.443C1.17926 13.5636 0.685242 12.3709 0.685242 11.1273C0.685242 9.88375 1.17926 8.69108 2.05862 7.81172L3.94299 5.92813C4.7879 5.08113 5.92469 4.58924 7.12051 4.55322C8.31633 4.5172 9.48067 4.93977 10.375 5.73438C10.4674 5.81645 10.5426 5.91591 10.5965 6.02708C10.6504 6.13824 10.6819 6.25893 10.6892 6.38226C10.6964 6.50559 10.6793 6.62914 10.6388 6.74585C10.5983 6.86257 10.5352 6.97017 10.4531 7.0625C10.3711 7.15484 10.2716 7.2301 10.1604 7.284C10.0493 7.3379 9.9286 7.36937 9.80527 7.37663C9.68194 7.38388 9.55839 7.36678 9.44167 7.32628C9.32496 7.28579 9.21736 7.2227 9.12502 7.14063C8.58871 6.66432 7.89068 6.41093 7.17371 6.43227C6.45674 6.45362 5.77502 6.7481 5.26799 7.25547L3.38518 9.13672C2.85765 9.66425 2.56128 10.3797 2.56128 11.1258C2.56128 11.8718 2.85765 12.5873 3.38518 13.1148C3.91271 13.6424 4.6282 13.9387 5.37424 13.9387C6.12029 13.9387 6.83577 13.6424 7.36331 13.1148L7.82737 12.6508C7.91444 12.5636 8.01783 12.4945 8.13164 12.4473C8.24545 12.4001 8.36745 12.3758 8.49065 12.3758C8.61385 12.3758 8.73585 12.4001 8.84966 12.4473C8.96347 12.4945 9.06686 12.5636 9.15393 12.6508ZM14.9414 1.55703C14.0614 0.679029 12.869 0.185944 11.6258 0.185944C10.3827 0.185944 9.19026 0.679029 8.31018 1.55703L7.84612 2.0211C7.67 2.19722 7.57105 2.43609 7.57106 2.68516C7.57106 2.93423 7.67 3.1731 7.84612 3.34922C8.02224 3.52534 8.26111 3.62429 8.51018 3.62429C8.75925 3.62429 8.99812 3.52534 9.17424 3.34922L9.63831 2.88516C10.1658 2.35763 10.8813 2.06126 11.6274 2.06126C12.3734 2.06126 13.0889 2.35763 13.6164 2.88516C14.144 3.41269 14.4403 4.12818 14.4403 4.87422C14.4403 5.62027 14.144 6.33575 13.6164 6.86328L11.7328 8.74766C11.2254 9.25482 10.5433 9.54887 9.82612 9.56964C9.10897 9.59041 8.41099 9.33632 7.87502 8.85938C7.78269 8.7773 7.67509 8.71422 7.55837 8.67372C7.44166 8.63323 7.31811 8.61612 7.19478 8.62338C7.07145 8.63063 6.95076 8.66211 6.8396 8.716C6.72844 8.7699 6.62898 8.84517 6.5469 8.9375C6.46482 9.02984 6.40174 9.13744 6.36125 9.25415C6.32075 9.37087 6.30364 9.49442 6.3109 9.61775C6.31815 9.74107 6.34963 9.86176 6.40353 9.97293C6.45742 10.0841 6.53269 10.1836 6.62502 10.2656C7.51876 11.0601 8.68231 11.4829 9.87757 11.4476C11.0728 11.4123 12.2094 10.9216 13.0547 10.0758L14.9391 8.19219C15.8181 7.31233 16.3121 6.11961 16.3125 4.87588C16.313 3.63215 15.8198 2.43908 14.9414 1.5586V1.55703Z" fill="black"/>
</svg>
