<svg width="15" height="18" viewBox="0 0 15 18" fill="none" xmlns="http://www.w3.org/2000/svg">
<path d="M5.44044 17.5881L5.44042 17.5881L5.44398 17.5903C5.5371 17.6461 5.64134 17.675 5.74688 17.675C5.83165 17.675 5.91822 17.6564 5.99729 17.6171C5.9978 17.6169 5.99831 17.6166 5.99882 17.6164L14.1235 13.7149C14.1236 13.7149 14.1237 13.7148 14.1238 13.7148C14.3258 13.6185 14.4484 13.4174 14.4531 13.2012L14.4531 13.2012V13.1969V3.04688C14.4531 2.84745 14.3527 2.66447 14.1846 2.5588C14.019 2.45472 13.8085 2.43887 13.6286 2.52617C13.6285 2.52625 13.6283 2.52633 13.6281 2.5264L9.73751 4.39378L1.37405 0.379074L1.37406 0.379049L1.371 0.377641C1.19654 0.297484 0.987402 0.305799 0.818566 0.411924C0.649686 0.518078 0.55 0.704623 0.55 0.900002V11.05C0.55 11.2848 0.689906 11.491 0.903456 11.5811L0.904038 11.5814L5.17188 13.3675V17.1C5.17188 17.2994 5.27233 17.4824 5.44044 17.5881ZM5.17188 9.44755L3.29037 8.68949L3.28885 8.68889C2.99768 8.57433 2.66247 8.71239 2.54264 9.00958L2.54263 9.00958L2.54201 9.01115C2.42671 9.30421 2.57051 9.63762 2.86165 9.75694L2.86273 9.75737L5.17188 10.6881V12.1213L1.7 10.6669V1.81492L8.40393 5.03747L7.01652 5.70418L3.31109 4.0149L3.31109 4.01489L3.3102 4.01449C3.02278 3.88515 2.67893 4.01327 2.54887 4.3023C2.41959 4.58959 2.54752 4.93326 2.83628 5.06346C2.83641 5.06352 2.83655 5.06358 2.83668 5.06364L5.6696 6.35233L5.49839 6.43505C5.4982 6.43514 5.49801 6.43523 5.49783 6.43532C5.2963 6.53156 5.17188 6.73351 5.17188 6.95313V7.1038L3.29037 6.34574L3.29037 6.34574L3.28885 6.34514C2.99768 6.23058 2.66247 6.36864 2.54264 6.66583L2.54263 6.66583L2.54201 6.6674C2.42671 6.96046 2.57051 7.29387 2.86165 7.41319L2.86273 7.41362L5.17188 8.3444V9.44755ZM7.44421 8.31368L7.44421 8.31368L7.44303 8.31426C7.16065 8.45306 7.04109 8.79614 7.17557 9.0795L7.17555 9.07951L7.17654 9.08152C7.27615 9.28549 7.47772 9.40625 7.69375 9.40625C7.77761 9.40625 7.86284 9.38669 7.94141 9.34972L7.94141 9.34973L7.94329 9.34882L12.1703 7.30562C12.46 7.16955 12.5774 6.82336 12.4394 6.53797C12.3011 6.25173 11.96 6.1309 11.6723 6.26993L11.7594 6.45L11.6723 6.26993L7.44421 8.31368ZM7.44421 10.6574L7.44303 10.658C7.16046 10.7969 7.04169 11.1364 7.17501 11.4221L7.17499 11.4221L7.17654 11.4253C7.27615 11.6292 7.47772 11.75 7.69375 11.75C7.77761 11.75 7.86284 11.7304 7.94141 11.6935L7.94141 11.6935L7.94329 11.6926L12.1703 9.64937C12.46 9.5133 12.5774 9.16711 12.4394 8.88172C12.3011 8.59548 11.96 8.47465 11.6723 8.61368L11.7594 8.79375L11.6723 8.61368L7.44421 10.6574ZM7.44421 12.9981L7.44303 12.9986C7.16065 13.1374 7.04109 13.4805 7.17557 13.7639L7.17555 13.7639L7.17654 13.7659C7.27615 13.9699 7.47772 14.0906 7.69375 14.0906C7.77761 14.0906 7.86284 14.0711 7.94141 14.0341L7.94141 14.0341L7.94329 14.0332L12.1703 11.99C12.46 11.8539 12.5774 11.5077 12.4394 11.2223C12.3011 10.9361 11.96 10.8153 11.6723 10.9543L11.7594 11.1344L11.6723 10.9543L7.44421 12.9981ZM6.32188 16.1882V10.2938V10.2937V10.2937V10.2937V10.2937V10.2937V10.2936V10.2936V10.2936V10.2936V10.2936V10.2936V10.2935V10.2935V10.2935V10.2935V10.2935V10.2935V10.2934V10.2934V10.2934V10.2934V10.2934V10.2933V10.2933V10.2933V10.2933V10.2933V10.2933V10.2933V10.2932V10.2932V10.2932V10.2932V10.2932V10.2932V10.2931V10.2931V10.2931V10.2931V10.2931V10.2931V10.293V10.293V10.293V10.293V10.293V10.293V10.293V10.2929V10.2929V10.2929V10.2929V10.2929V10.2929V10.2928V10.2928V10.2928V10.2928V10.2928V10.2928V10.2928V10.2927V10.2927V10.2927V10.2927V10.2927V10.2927V10.2927V10.2927V10.2926V10.2926V10.2926V10.2926V10.2926V10.2926V10.2926V10.2925V10.2925V10.2925V10.2925V10.2925V10.2925V10.2925V10.2925V10.2924V10.2924V10.2924V10.2924V10.2924V10.2924V10.2924V10.2924V10.2923V10.2923V10.2923V10.2923V10.2923V10.2923V10.2923V10.2923V10.2922V10.2922V10.2922V10.2922V10.2922V10.2922V10.2922V10.2922V10.2922V10.2921V10.2921V10.2921V10.2921V10.2921V10.2921V10.2921V10.2921V10.2921V10.292V10.292V10.292V10.292V10.292V10.292V10.292V10.292V10.292V10.2919V10.2919V10.2919V10.2919V10.2919V10.2919V10.2919V10.2919V10.2919V10.2919V10.2918V10.2918V10.2918V10.2918V10.2918V10.2918V10.2918V10.2918V10.2918V10.2918V10.2917V10.2917V10.2917V10.2917V10.2917V10.2917V10.2917V10.2917V10.2917V10.2917V10.2917V10.2917V10.2916V10.2916V10.2916V10.2916V10.2916V10.2916V10.2916V10.2916V10.2916V10.2916V10.2916V10.2915V10.2915V10.2915V10.2915V10.2915V10.2915V10.2915V10.2915V10.2915V10.2915V10.2915V10.2915V10.2915V10.2914V10.2914V10.2914V10.2914V10.2914V10.2914V10.2914V10.2914V10.2913V10.2913V10.2913V10.2913V10.2913V10.2913V10.2913V10.2913V10.2912V10.2912V10.2912V10.2912V10.2912V10.2912V10.2912V10.2912V10.2912V10.2911V10.2911V10.2911V10.2911V10.2911V10.2911V10.2911V10.2911V10.2911V10.291V10.291V10.291V10.291V10.291V10.291V10.291V10.291V10.291V10.291V10.291V10.291V10.2909V10.2909V10.2909V10.2909V10.2909V10.2909V10.2909V10.2909V10.2909V10.2909V10.2909V10.2909V10.2908V10.2908V10.2908V10.2908V10.2908V10.2908V10.2908V10.2908V10.2908V10.2908V10.2908V10.2907V10.2907V10.2907V10.2907V10.2907V10.2907V10.2907V10.2907V10.2907V10.2907V10.2907V10.2907V10.2907V10.2906V10.2906V10.2906V7.95V7.94998V7.94997V7.94995V7.94993V7.94991V7.94989V7.94988V7.94986V7.94984V7.94982V7.9498V7.94979V7.94977V7.94975V7.94974V7.94972V7.9497V7.94968V7.94967V7.94965V7.94963V7.94962V7.9496V7.94958V7.94957V7.94955V7.94953V7.94952V7.9495V7.94948V7.94947V7.94945V7.94944V7.94942V7.9494V7.94939V7.94937V7.94936V7.94934V7.94933V7.94931V7.94929V7.94928V7.94926V7.94925V7.94923V7.94922V7.9492V7.94919V7.94917V7.94916V7.94914V7.94913V7.94911V7.9491V7.94908V7.94907V7.94906V7.94904V7.94903V7.94901V7.949V7.94898V7.94897V7.94896V7.94894V7.94893V7.94891V7.9489V7.94889V7.94887V7.94886V7.94885V7.94883V7.94882V7.94881V7.94879V7.94878V7.94877V7.94875V7.94874V7.94873V7.94871V7.9487V7.94869V7.94868V7.94866V7.94865V7.94864V7.94863V7.94861V7.9486V7.94859V7.94858V7.94857V7.94855V7.94854V7.94853V7.94852V7.9485V7.94849V7.94848V7.94847V7.94846V7.94845V7.94843V7.94842V7.94841V7.9484V7.94839V7.94838V7.94837V7.94836V7.94834V7.94833V7.94832V7.94831V7.9483V7.94829V7.94828V7.94827V7.94826V7.94825V7.94824V7.94823V7.94822V7.94821V7.94819V7.94818V7.94817V7.94816V7.94815V7.94814V7.94813V7.94812V7.94811V7.9481V7.94809V7.94808V7.94808V7.94807V7.94806V7.94805V7.94804V7.94803V7.94802V7.94801V7.948V7.94799V7.94798V7.94797V7.94796V7.94795V7.94795V7.94794V7.94793V7.94792V7.94791V7.9479V7.94789V7.94788V7.94788V7.94787V7.94786V7.94785V7.94784V7.94783V7.94782V7.94782V7.94781V7.9478V7.94779V7.94778V7.94778V7.94777V7.94776V7.94775V7.94774V7.94774V7.94773V7.94772V7.94771V7.94771V7.9477V7.94769V7.94768V7.94768V7.94767V7.94766V7.94765V7.94765V7.94764V7.94763V7.94763V7.94762V7.94761V7.9476V7.9476V7.94759V7.94758V7.94758V7.94757V7.94756V7.94756V7.94755V7.94754V7.94754V7.94753V7.94752V7.94752V7.94751V7.9475V7.9475V7.94749V7.94749V7.94748V7.94747V7.94747V7.94746V7.94746V7.94745V7.94744V7.94744V7.94743V7.94743V7.94742V7.94742V7.94741V7.9474V7.9474V7.94739V7.94739V7.94738V7.94738V7.94737V7.94737V7.94736V7.94736V7.94735V7.94735V7.94734V7.94733V7.94733V7.94732V7.94732V7.94731V7.94731V7.9473V7.9473V7.9473V7.94729V7.94729V7.94728V7.94728V7.94727V7.94727V7.94726V7.94726V7.94725V7.94725V7.94724V7.94724V7.94724V7.94723V7.94723V7.94722V7.94722V7.94721V7.94721V7.94721V7.9472V7.9472V7.94719V7.94719V7.94719V7.94718V7.94718V7.94718V7.94717V7.94717V7.94716V7.94716V7.94716V7.94715V7.94714V7.94713V7.94713V7.94712V7.94712V7.94711V7.9471V7.9471V7.94709V7.94709V7.94708V7.94707V7.94707V7.94706V7.94706V7.94705V7.94705V7.94704V7.94704V7.94703V7.94703V7.94702V7.94702V7.94701V7.94701V7.947V7.947V7.94699V7.94699V7.94699V7.94698V7.94698V7.94697V7.94697V7.94696V7.94696V7.94696V7.94695V7.94695V7.94694V7.94694V7.94693V7.94693V7.94693V7.94692V7.94692V7.94691V7.94691V7.9469V7.9469V7.9469V7.94689V7.94689V7.94689V7.94688V7.94688V7.31331L13.3 3.96169V12.8336L6.32188 16.1882Z" fill="black" stroke="black" stroke-width="0.4"/>
</svg>
