<svg width="17" height="14" viewBox="0 0 17 14" fill="none" xmlns="http://www.w3.org/2000/svg">
<path d="M1.83336 13.6667C1.37502 13.6667 0.982522 13.5033 0.655855 13.1767C0.329188 12.85 0.166133 12.4578 0.166688 12V2.00001C0.166688 1.54168 0.330022 1.14918 0.656688 0.822511C0.983355 0.495845 1.37558 0.332789 1.83336 0.333345H15.1667C15.625 0.333345 16.0175 0.496678 16.3442 0.823345C16.6709 1.15001 16.8339 1.54223 16.8334 2.00001V12C16.8334 12.4583 16.67 12.8508 16.3434 13.1775C16.0167 13.5042 15.6245 13.6672 15.1667 13.6667H1.83336ZM1.83336 12H10.5834V9.08335H1.83336V12ZM12.25 12H15.1667V4.50001H12.25V12ZM1.83336 7.41668H10.5834V4.50001H1.83336V7.41668Z" fill="black"/>
</svg>
